<svg width="65" height="65" viewBox="0 0 65 65" fill="none" xmlns="http://www.w3.org/2000/svg">
<circle cx="32.5" cy="32.5" r="32.5" fill="#FFEFB6"/>
<path d="M31.5 17.5C26.3212 17.5 22.125 21.6962 22.125 26.875C22.125 27.3723 22.3225 27.8492 22.6742 28.2008C23.0258 28.5525 23.5027 28.75 24 28.75C24.4973 28.75 24.9742 28.5525 25.3258 28.2008C25.6775 27.8492 25.875 27.3723 25.875 26.875C25.875 23.7662 28.3912 21.25 31.5 21.25C34.6087 21.25 37.125 23.7662 37.125 26.875C37.125 28.405 36.7519 29.3012 36.3037 29.9294C35.8125 30.6137 35.1319 31.1256 34.1887 31.7762L33.9712 31.9225C33.1331 32.4962 32.0531 33.2331 31.2169 34.2606C30.2287 35.4756 29.625 37.0112 29.625 39.0625V40C29.625 40.4973 29.8225 40.9742 30.1742 41.3258C30.5258 41.6775 31.0027 41.875 31.5 41.875C31.9973 41.875 32.4742 41.6775 32.8258 41.3258C33.1775 40.9742 33.375 40.4973 33.375 40V39.0625C33.375 37.8325 33.7087 37.1425 34.125 36.6269C34.6069 36.0381 35.2556 35.5919 36.2137 34.9337L36.3131 34.8644C37.2431 34.2269 38.4375 33.3906 39.3506 32.1119C40.3125 30.7769 40.875 29.0931 40.875 26.875C40.875 21.6962 36.6787 17.5 31.5 17.5Z" fill="#DEA600"/>
<path d="M31.5 49.8438C32.1216 49.8438 32.7177 49.5968 33.1573 49.1573C33.5968 48.7177 33.8438 48.1216 33.8438 47.5C33.8438 46.8784 33.5968 46.2823 33.1573 45.8427C32.7177 45.4032 32.1216 45.1562 31.5 45.1562C30.8784 45.1562 30.2823 45.4032 29.8427 45.8427C29.4032 46.2823 29.1562 46.8784 29.1562 47.5C29.1562 48.1216 29.4032 48.7177 29.8427 49.1573C30.2823 49.5968 30.8784 49.8438 31.5 49.8438Z" fill="#DEA600"/>
</svg>
