<svg width="65" height="65" viewBox="0 0 65 65" fill="none" xmlns="http://www.w3.org/2000/svg">
<circle cx="32.5" cy="32.4998" r="32.5" fill="#FFEFB6"/>
<path d="M47.8313 45.1688L41.4563 38.8125C43.5131 36.1921 44.6292 32.9562 44.625 29.625C44.625 26.6583 43.7453 23.7582 42.097 21.2915C40.4488 18.8247 38.1061 16.9021 35.3653 15.7668C32.6244 14.6315 29.6084 14.3344 26.6987 14.9132C23.7889 15.492 21.1162 16.9206 19.0184 19.0184C16.9206 21.1162 15.492 23.7889 14.9132 26.6987C14.3344 29.6084 14.6315 32.6244 15.7668 35.3653C16.9021 38.1061 18.8247 40.4488 21.2915 42.097C23.7582 43.7453 26.6583 44.625 29.625 44.625C32.9562 44.6292 36.1921 43.5131 38.8125 41.4563L45.1688 47.8313C45.3431 48.007 45.5504 48.1465 45.7789 48.2417C46.0074 48.3369 46.2525 48.3859 46.5 48.3859C46.7475 48.3859 46.9926 48.3369 47.2211 48.2417C47.4496 48.1465 47.6569 48.007 47.8313 47.8313C48.007 47.6569 48.1465 47.4496 48.2417 47.2211C48.3369 46.9926 48.3859 46.7475 48.3859 46.5C48.3859 46.2525 48.3369 46.0074 48.2417 45.7789C48.1465 45.5504 48.007 45.3431 47.8313 45.1688ZM18.375 29.625C18.375 27.4 19.0348 25.2249 20.271 23.3748C21.5071 21.5248 23.2641 20.0828 25.3198 19.2314C27.3755 18.3799 29.6375 18.1571 31.8198 18.5912C34.0021 19.0253 36.0066 20.0967 37.58 21.6701C39.1533 23.2434 40.2248 25.248 40.6588 27.4302C41.0929 29.6125 40.8701 31.8745 40.0187 33.9302C39.1672 35.9859 37.7252 37.7429 35.8752 38.979C34.0251 40.2152 31.85 40.875 29.625 40.875C26.6413 40.875 23.7798 39.6897 21.6701 37.58C19.5603 35.4702 18.375 32.6087 18.375 29.625Z" fill="#DEA600"/>
</svg>
