<svg width="65" height="65" viewBox="0 0 65 65" fill="none" xmlns="http://www.w3.org/2000/svg">
<circle cx="32.5" cy="32.5" r="32.5" fill="#FFEFB6"/>
<circle cx="32.5" cy="33.5" r="21.5" fill="#DEA600"/>
<path d="M32.5 11C20.08 11 10 21.08 10 33.5C10 45.92 20.08 56 32.5 56C44.92 56 55 45.92 55 33.5C55 21.08 44.92 11 32.5 11ZM32.5 17.75C36.235 17.75 39.25 20.765 39.25 24.5C39.25 28.235 36.235 31.25 32.5 31.25C28.765 31.25 25.75 28.235 25.75 24.5C25.75 20.765 28.765 17.75 32.5 17.75ZM32.5 49.7C29.8267 49.7 27.1949 49.0385 24.8394 47.7743C22.4838 46.5102 20.4777 44.6827 19 42.455C19.0675 37.9775 28 35.525 32.5 35.525C36.9775 35.525 45.9325 37.9775 46 42.455C44.5223 44.6827 42.5162 46.5102 40.1606 47.7743C37.8051 49.0385 35.1733 49.7 32.5 49.7Z" fill="#FFEFB6"/>
</svg>
