<svg width="131" height="122" viewBox="0 0 131 122" fill="none" xmlns="http://www.w3.org/2000/svg">
<path d="M103.167 22.4433C116.723 45.9227 123.545 73.9904 97 89.3163C70.4548 104.642 35.2228 112.796 21.667 89.3163C-0.692651 35.1 30.2946 30.3642 58.5391 43.1456C89.9374 45.9011 89.6111 -1.03615 103.167 22.4433Z" fill="#FFEFB6"/>
<g filter="url(#filter0_i)">
<path d="M69.4514 44.5375C69.5899 44.5376 69.7254 44.4968 69.8408 44.4202C69.9562 44.3436 70.0464 44.2347 70.1001 44.107C70.1538 43.9793 70.1686 43.8386 70.1426 43.7025C70.1166 43.5665 70.0511 43.4411 69.9541 43.3422L56.1729 29.3289C56.0749 29.2295 55.9496 29.1614 55.8129 29.1334C55.6761 29.1054 55.5341 29.1188 55.405 29.1717C55.2759 29.2247 55.1654 29.3149 55.0878 29.4309C55.0101 29.5468 54.9686 29.6833 54.9688 29.8228V42.4281C54.9688 42.9876 55.191 43.5241 55.5866 43.9197C55.9822 44.3153 56.5187 44.5375 57.0781 44.5375H69.4514Z" fill="#2DAF00"/>
<path d="M51.6289 47.877C50.9069 47.1647 50.3332 46.3163 49.941 45.381C49.5488 44.4457 49.3458 43.442 49.3438 42.4277V26.2559H36.6875C33.7065 26.2647 30.8502 27.4528 28.7423 29.5606C26.6344 31.6685 25.4463 34.5249 25.4375 37.5059V76.8809C25.4375 79.8645 26.6228 82.726 28.7325 84.8358C30.8423 86.9456 33.7038 88.1309 36.6875 88.1309H62C64.9837 88.1309 67.8452 86.9456 69.9549 84.8358C72.0647 82.726 73.25 79.8645 73.25 76.8809V50.1621H57.0781C56.0638 50.1607 55.0599 49.9579 54.1245 49.5657C53.1891 49.1734 52.3409 48.5994 51.6289 47.877Z" fill="#2DAF00"/>
<path d="M82.3906 22.0375H94.7639C94.9024 22.0376 95.0379 21.9968 95.1533 21.9202C95.2687 21.8436 95.3589 21.7347 95.4126 21.607C95.4663 21.4793 95.4811 21.3386 95.4551 21.2025C95.4291 21.0665 95.3636 20.9411 95.2666 20.8422L81.4854 6.8289C81.3874 6.72946 81.2621 6.66141 81.1254 6.63342C80.9886 6.60543 80.8467 6.61878 80.7175 6.67175C80.5884 6.72472 80.4779 6.81492 80.4003 6.93087C80.3226 7.04683 80.2811 7.18328 80.2813 7.32285V19.9281C80.2813 20.4876 80.5035 21.0241 80.8991 21.4197C81.2947 21.8153 81.8312 22.0375 82.3906 22.0375Z" fill="#2DAF00"/>
<path d="M82.3906 27.6621C80.3442 27.6465 78.386 26.8266 76.9389 25.3795C75.4918 23.9324 74.6719 21.9742 74.6562 19.9277V3.75586H55.6719C52.8757 3.75912 50.1949 4.87135 48.2177 6.84856C46.2405 8.82578 45.1283 11.5065 45.125 14.3027V20.6309H52.5289C53.4739 20.6346 54.4089 20.8251 55.2801 21.1913C56.1513 21.5575 56.9416 22.0923 57.6055 22.7648L76.7937 42.2766C78.1324 43.6348 78.8799 45.4672 78.8732 47.3742V71.2559H88.1984C93.9131 71.2559 98.5607 66.5238 98.5607 60.709V27.6621H82.3906Z" fill="#2DAF00"/>
</g>
<defs>
<filter id="filter0_i" x="17" y="0.943359" width="90" height="94" filterUnits="userSpaceOnUse" color-interpolation-filters="sRGB">
<feFlood flood-opacity="0" result="BackgroundImageFix"/>
<feBlend mode="normal" in="SourceGraphic" in2="BackgroundImageFix" result="shape"/>
<feColorMatrix in="SourceAlpha" type="matrix" values="0 0 0 0 0 0 0 0 0 0 0 0 0 0 0 0 0 0 127 0" result="hardAlpha"/>
<feOffset dy="4"/>
<feGaussianBlur stdDeviation="2"/>
<feComposite in2="hardAlpha" operator="arithmetic" k2="-1" k3="1"/>
<feColorMatrix type="matrix" values="0 0 0 0 0 0 0 0 0 0 0 0 0 0 0 0 0 0 0.25 0"/>
<feBlend mode="normal" in2="shape" result="effect1_innerShadow"/>
</filter>
</defs>
</svg>
