<svg width="146" height="146" viewBox="0 0 146 146" fill="none" xmlns="http://www.w3.org/2000/svg">
<path d="M34.9694 113.201C15.7985 94.0301 17.8278 60.9187 39.5019 39.2446C61.1759 17.5705 94.2873 15.5412 113.458 34.7121C149.088 81.294 132.791 90.9787 102.2 85.9431C71.1588 91.4079 54.1402 132.372 34.9694 113.201Z" fill="#FFEFB6"/>
<g filter="url(#filter0_i)">
<path d="M48.21 88.7396C47.6716 89.2078 47.0108 89.5127 46.3052 89.6184C45.5995 89.7242 44.8784 89.6264 44.2264 89.3366C43.5743 89.0468 43.0185 88.5771 42.6242 87.9824C42.2298 87.3878 42.0133 86.693 42 85.9796V77.5684C40.0109 77.5684 38.1033 76.7782 36.6967 75.3717C35.2902 73.9651 34.5 72.0575 34.5 70.0684V43.8184C34.5 41.8292 35.2902 39.9216 36.6967 38.5151C38.1033 37.1085 40.0109 36.3184 42 36.3184H83.25C85.2392 36.3184 87.1468 37.1085 88.5533 38.5151C89.9599 39.9216 90.75 41.8292 90.75 43.8184V70.0684C90.75 72.0575 89.9599 73.9651 88.5533 75.3717C87.1468 76.7782 85.2392 77.5684 83.25 77.5684H64.5113L48.21 88.7396ZM94.5 58.8821C94.4881 59.3433 94.4881 59.8047 94.5 60.2659V58.8784C94.5188 58.4771 94.5225 53.4521 94.515 43.8071C94.5121 40.8254 93.3255 37.9668 91.216 35.8594C89.1066 33.7521 86.2468 32.5684 83.265 32.5684H53.25V28.8184C53.25 26.8292 54.0402 24.9216 55.4467 23.5151C56.8533 22.1085 58.7609 21.3184 60.75 21.3184H102C103.989 21.3184 105.897 22.1085 107.303 23.5151C108.71 24.9216 109.5 26.8292 109.5 28.8184V55.0684C109.5 57.0575 108.71 58.9651 107.303 60.3717C105.897 61.7782 103.989 62.5684 102 62.5684V70.9796C101.987 71.693 101.77 72.3878 101.376 72.9824C100.982 73.5771 100.426 74.0468 99.7737 74.3366C99.1217 74.6264 98.4005 74.7242 97.6949 74.6184C96.9893 74.5127 96.3285 74.2078 95.79 73.7396L94.5 72.8546V58.8821Z" fill="#2DAF00"/>
</g>
<defs>
<filter id="filter0_i" x="34.5" y="21.3184" width="75" height="72.3415" filterUnits="userSpaceOnUse" color-interpolation-filters="sRGB">
<feFlood flood-opacity="0" result="BackgroundImageFix"/>
<feBlend mode="normal" in="SourceGraphic" in2="BackgroundImageFix" result="shape"/>
<feColorMatrix in="SourceAlpha" type="matrix" values="0 0 0 0 0 0 0 0 0 0 0 0 0 0 0 0 0 0 127 0" result="hardAlpha"/>
<feOffset dy="4"/>
<feGaussianBlur stdDeviation="2"/>
<feComposite in2="hardAlpha" operator="arithmetic" k2="-1" k3="1"/>
<feColorMatrix type="matrix" values="0 0 0 0 0 0 0 0 0 0 0 0 0 0 0 0 0 0 0.25 0"/>
<feBlend mode="normal" in2="shape" result="effect1_innerShadow"/>
</filter>
</defs>
</svg>
