<svg width="111" height="100" viewBox="0 0 111 100" fill="none" xmlns="http://www.w3.org/2000/svg">
<path d="M111 50.9099C111 78.0216 86.1518 100 55.5 100C24.8482 100 0 78.0216 0 50.9099C7.74419 -7.22265 33.5581 19.2598 51.6279 44.451C77.4419 62.5365 111 23.7982 111 50.9099Z" fill="#FFEFB6"/>
<g filter="url(#filter0_i)">
<path d="M70.8125 15C72.9505 14.9997 75.0088 15.8111 76.5716 17.2701C78.1343 18.7292 79.0849 20.727 79.2313 22.86L79.25 23.4375V65.625C79.2491 66.0935 79.4237 66.5454 79.7394 66.8917C80.0551 67.2379 80.489 67.4534 80.9556 67.4958C81.4222 67.5381 81.8878 67.4042 82.2606 67.1204C82.6335 66.8366 82.8865 66.4236 82.97 65.9625L83 65.625V26.3025C84.9573 26.5213 86.7763 27.418 88.142 28.8371C89.5077 30.2562 90.3339 32.1083 90.4775 34.0725L90.5 34.6875V62.8125C90.5002 65.9255 89.3092 68.9206 87.1712 71.1834C85.0333 73.4461 82.1105 74.805 79.0025 74.9813L78.3125 75H27.6875C24.5745 75.0002 21.5794 73.8092 19.3166 71.6712C17.0539 69.5333 15.695 66.6105 15.5188 63.5025L15.5 62.8125V23.4375C15.4997 21.2995 16.3111 19.2412 17.7701 17.6784C19.2292 16.1157 21.227 15.1651 23.36 15.0188L23.9375 15H70.8125ZM42.68 41.25H29.555C28.8091 41.25 28.0937 41.5463 27.5663 42.0738C27.0388 42.6012 26.7425 43.3166 26.7425 44.0625V57.1875C26.7425 58.74 28.0025 60 29.555 60H42.68C43.4259 60 44.1413 59.7037 44.6687 59.1762C45.1962 58.6488 45.4925 57.9334 45.4925 57.1875V44.0625C45.4925 43.3166 45.1962 42.6012 44.6687 42.0738C44.1413 41.5463 43.4259 41.25 42.68 41.25ZM65.195 54.375H55.8275L55.445 54.4012C54.7391 54.4984 54.0963 54.8599 53.6466 55.4126C53.1969 55.9654 52.9738 56.6683 53.0224 57.3792C53.071 58.0901 53.3876 58.7561 53.9083 59.2426C54.429 59.7291 55.1149 59.9998 55.8275 60H65.195L65.5775 59.9738C66.2834 59.8766 66.9262 59.5151 67.3759 58.9624C67.8256 58.4096 68.0487 57.7067 68.0001 56.9958C67.9515 56.2849 67.6349 55.6189 67.1142 55.1324C66.5935 54.6459 65.9076 54.3752 65.195 54.375ZM39.8675 46.875V54.375H32.3675V46.875H39.8675ZM65.1875 41.25L55.82 41.2688L55.4375 41.2912C54.7247 41.3815 54.0735 41.741 53.6174 42.2962C53.1613 42.8514 52.935 43.5601 52.9849 44.2768C53.0348 44.9935 53.3571 45.664 53.8857 46.1507C54.4143 46.6373 55.1091 46.9032 55.8275 46.8938L65.1987 46.875L65.5775 46.8488C66.2838 46.7516 66.9268 46.3898 67.3765 45.8366C67.8262 45.2835 68.049 44.5802 68 43.8689C67.9509 43.1577 67.6336 42.4917 67.1122 42.0055C66.5908 41.5193 65.9042 41.2493 65.1912 41.25H65.1875ZM65.1912 28.14H29.555L29.1725 28.1663C28.4666 28.2634 27.8238 28.6249 27.3741 29.1776C26.9244 29.7304 26.7013 30.4333 26.7499 31.1442C26.7985 31.8551 27.1151 32.5211 27.6358 33.0076C28.1565 33.4941 28.8424 33.7648 29.555 33.765H65.195L65.5775 33.7425C66.2895 33.6522 66.94 33.2931 67.3959 32.7388C67.8518 32.1844 68.0785 31.4768 68.0296 30.7608C67.9807 30.0447 67.6599 29.3745 67.1329 28.8873C66.606 28.4 65.9127 28.1327 65.195 28.14H65.1912Z" fill="#2DAF00"/>
</g>
<defs>
<filter id="filter0_i" x="8" y="0" width="90" height="94" filterUnits="userSpaceOnUse" color-interpolation-filters="sRGB">
<feFlood flood-opacity="0" result="BackgroundImageFix"/>
<feBlend mode="normal" in="SourceGraphic" in2="BackgroundImageFix" result="shape"/>
<feColorMatrix in="SourceAlpha" type="matrix" values="0 0 0 0 0 0 0 0 0 0 0 0 0 0 0 0 0 0 127 0" result="hardAlpha"/>
<feOffset dy="4"/>
<feGaussianBlur stdDeviation="2"/>
<feComposite in2="hardAlpha" operator="arithmetic" k2="-1" k3="1"/>
<feColorMatrix type="matrix" values="0 0 0 0 0 0 0 0 0 0 0 0 0 0 0 0 0 0 0.25 0"/>
<feBlend mode="normal" in2="shape" result="effect1_innerShadow"/>
</filter>
</defs>
</svg>
