<svg width="126" height="110" viewBox="0 0 126 110" fill="none" xmlns="http://www.w3.org/2000/svg">
<path d="M7.20646 54.8148C12.1403 28.1558 40.5732 11.0664 70.7132 16.6444C100.853 22.2225 121.287 48.3558 116.353 75.0148C98.159 130.767 77.5954 100.03 64.4117 71.9705C42.3201 49.4893 2.27262 81.4738 7.20646 54.8148Z" fill="#FFEFB6"/>
<g filter="url(#filter0_i)">
<path d="M94.25 85.5C99.6206 85.5 104.771 83.3665 108.569 79.5689C112.367 75.7713 114.5 70.6206 114.5 65.25C114.5 59.8794 112.367 54.7287 108.569 50.9311C104.771 47.1335 99.6206 45 94.25 45C88.8794 45 83.7287 47.1335 79.9311 50.9311C76.1335 54.7287 74 59.8794 74 65.25C74 70.6206 76.1335 75.7713 79.9311 79.5689C83.7287 83.3665 88.8794 85.5 94.25 85.5ZM97.058 76.5225C97.0731 76.901 97.0117 77.2787 96.8773 77.6328C96.7429 77.987 96.5383 78.3104 96.2759 78.5835C96.0134 78.8567 95.6985 79.074 95.35 79.2225C95.0015 79.371 94.6266 79.4475 94.2478 79.4475C93.8689 79.4475 93.494 79.371 93.1455 79.2225C92.797 79.074 92.4821 78.8567 92.2196 78.5835C91.9572 78.3104 91.7526 77.987 91.6182 77.6328C91.4838 77.2787 91.4223 76.901 91.4375 76.5225C91.4375 75.7766 91.7338 75.0612 92.2613 74.5338C92.7887 74.0063 93.5041 73.71 94.25 73.71C94.9959 73.71 95.7113 74.0063 96.2387 74.5338C96.7662 75.0612 97.0625 75.7766 97.0625 76.5225H97.058ZM102.593 60.5385C102.593 63.1755 101.626 64.6245 99.317 66.474L98.0705 67.437C96.9635 68.31 96.59 68.787 96.5135 69.453L96.464 70.155C96.3638 70.7083 96.0601 71.204 95.6127 71.5445C95.1653 71.885 94.6067 72.0457 94.0467 71.9949C93.4867 71.9441 92.9661 71.6855 92.5873 71.27C92.2085 70.8545 91.999 70.3123 92 69.75C92 67.185 92.945 65.772 95.222 63.954L96.473 62.9865C97.769 61.9515 98.093 61.4475 98.093 60.5385C98.093 58.0275 96.374 56.2635 94.25 56.2635C92.027 56.2635 90.3845 57.9105 90.407 60.516C90.41 60.8115 90.3547 61.1046 90.2443 61.3787C90.134 61.6529 89.9707 61.9026 89.7639 62.1136C89.5571 62.3246 89.3107 62.4928 89.0388 62.6086C88.767 62.7244 88.475 62.7855 88.1795 62.7885C87.884 62.7915 87.5909 62.7362 87.3168 62.6258C87.0426 62.5155 86.7929 62.3522 86.5819 62.1454C86.3709 61.9386 86.2027 61.6922 86.0869 61.4203C85.9711 61.1485 85.91 60.8565 85.907 60.561C85.862 55.4445 89.534 51.7635 94.25 51.7635C98.8895 51.7635 102.589 55.5705 102.589 60.5385H102.593Z" fill="#2DAF00"/>
<path d="M69.5 9C64.7261 9 60.1477 10.8964 56.7721 14.2721C53.3964 17.6477 51.5 22.2261 51.5 27C51.5 31.7739 53.3964 36.3523 56.7721 39.7279C60.1477 43.1036 64.7261 45 69.5 45C74.2739 45 78.8523 43.1036 82.2279 39.7279C85.6036 36.3523 87.5 31.7739 87.5 27C87.5 22.2261 85.6036 17.6477 82.2279 14.2721C78.8523 10.8964 74.2739 9 69.5 9Z" fill="#2DAF00"/>
<path d="M47.0405 49.5001C45.8554 49.4953 44.681 49.7246 43.5846 50.1747C42.4883 50.6248 41.4916 51.2869 40.6517 52.1231C39.8118 52.9592 39.1452 53.9529 38.6901 55.0472C38.2351 56.1416 38.0006 57.3149 38 58.5001C38 66.1096 41.7485 71.8471 47.6075 75.5866C53.3765 79.2631 61.1525 81.0001 69.5 81.0001C71.345 81.0001 73.172 80.9146 74.945 80.7436C71.4122 76.3534 69.4904 70.8852 69.5 65.2501C69.5 59.2651 71.624 53.7751 75.1565 49.5001H47.045H47.0405Z" fill="#2DAF00"/>
</g>
<defs>
<filter id="filter0_i" x="29" y="0" width="90" height="94" filterUnits="userSpaceOnUse" color-interpolation-filters="sRGB">
<feFlood flood-opacity="0" result="BackgroundImageFix"/>
<feBlend mode="normal" in="SourceGraphic" in2="BackgroundImageFix" result="shape"/>
<feColorMatrix in="SourceAlpha" type="matrix" values="0 0 0 0 0 0 0 0 0 0 0 0 0 0 0 0 0 0 127 0" result="hardAlpha"/>
<feOffset dy="4"/>
<feGaussianBlur stdDeviation="2"/>
<feComposite in2="hardAlpha" operator="arithmetic" k2="-1" k3="1"/>
<feColorMatrix type="matrix" values="0 0 0 0 0 0 0 0 0 0 0 0 0 0 0 0 0 0 0.25 0"/>
<feBlend mode="normal" in2="shape" result="effect1_innerShadow"/>
</filter>
</defs>
</svg>
