<svg width="359" height="470" viewBox="0 0 359 470" fill="none" xmlns="http://www.w3.org/2000/svg">
<g clip-path="url(#clip0)">
<path d="M301.135 185.166C300.56 184.536 299.867 184.025 299.095 183.663C273.939 172.478 246.661 166.868 219.132 167.218C172.021 167.773 137.398 197.87 137.398 197.87C137.398 197.87 110.738 216.033 133.426 317.616C149.243 388.368 136.897 421.687 134.84 426.536C134.638 427.017 134.5 427.522 134.428 428.039C133.873 431.618 132.37 444.931 140.243 442.479C149.315 439.634 181.11 431.743 206.643 433.962C225.967 435.751 243.162 440.207 251.482 444.036C257.924 447.024 291.133 465.777 294.121 467.155C294.497 467.334 307.415 475.941 309.938 462.341C312.765 447.024 321.282 397.637 309.938 367.504C302.262 347.177 303.407 327.35 304.946 316.65C305.097 315.626 305.489 314.652 306.091 313.81C306.693 312.969 307.487 312.282 308.407 311.808C309.327 311.334 310.346 311.086 311.381 311.085C312.416 311.083 313.436 311.329 314.358 311.8C321.103 315.236 330.604 321.57 336.044 331.752C339.763 338.58 342.761 345.776 344.99 353.225C345.407 354.69 346.33 355.961 347.594 356.812C348.857 357.664 350.382 358.041 351.897 357.877C353.363 357.725 354.733 357.079 355.783 356.045C356.834 355.011 357.501 353.65 357.676 352.187C359.465 336.87 362.543 290.31 341.071 250.639C320.566 212.615 318.491 204.366 301.135 185.166Z" fill="#3BBDA9"/>
<path d="M158.404 238.167H232.749C237.166 241.42 241.142 245.233 244.576 249.512C248.638 255.184 312.765 314.216 312.765 314.216C312.765 314.216 333.199 310.798 345.688 357.913C345.688 357.913 337.743 372.675 312.765 367.558C287.787 362.44 272.149 338.051 272.149 338.051L233.876 269.374L227.649 271.163C227.649 271.163 232.749 281.381 205.516 287.626C205.516 287.626 200.971 289.898 192.991 284.781C185.011 279.663 175.957 272.255 175.957 272.255L173.685 257.493L179.375 251.82C179.375 251.82 151.033 244.967 158.404 238.167Z" fill="#F5ABA1"/>
<path d="M131.172 222.653H56.2548L84.6327 318.189H162.949L131.172 222.653Z" fill="#1E1F58"/>
<path d="M239.763 150.469C239.763 150.469 246.92 151.65 252.18 148.394C257.441 145.137 259.874 136.852 256.922 129.748C253.97 122.644 254.256 122.34 256.027 116.435C257.28 112.284 263.596 107.846 267.282 105.556C269.391 104.263 271.178 102.507 272.506 100.42C274.618 97.0204 277.391 93.4238 275.566 87.4293C274.045 82.4369 269.053 78.2498 266.62 77.6593C261.829 76.5764 256.83 76.8679 252.198 78.5003C247.48 78.3901 242.773 78.0077 238.099 77.3551L239.763 150.469Z" fill="#20205A"/>
<path d="M243.914 178.938C243.914 178.938 240.693 147.624 238.546 115.469L237.777 49.4406L174.096 45.5756C174.096 45.5756 167.673 60.6959 167.1 64.4178C166.528 68.1397 162.949 86.6241 162.949 99.4897C162.949 112.355 164.452 134.293 168.8 145.083C173.148 155.873 185.834 157.949 192.061 157.949C193.971 157.87 195.87 157.613 197.733 157.18L198.305 169.491C198.432 171.6 198.09 173.711 197.304 175.672C196.519 177.634 195.308 179.397 193.761 180.835C188.393 185.756 188.661 201.449 192.633 208.267C196.605 215.084 210.025 222.582 210.025 222.582C210.025 222.582 250.176 204.491 243.914 178.938Z" fill="#F5ABA1"/>
<path d="M164.076 117.079C164.076 117.079 159.925 154.925 188.679 157.949C217.433 160.973 239.154 123.468 239.154 123.468L239.28 113.447L238.17 77.4267C235.231 76.8878 232.604 75.2579 230.816 72.8638C230.816 72.8638 230.351 96.8415 228.455 102.317C226.558 107.793 227.309 116.883 221.297 120.676C215.286 124.47 207.305 120.479 207.305 120.479C207.305 120.479 190.558 111.98 164.076 117.079Z" fill="#1E1F58"/>
<path d="M276.318 57.0993C276.318 52.8405 274.779 43.661 262.988 37.8634C261.323 37.0707 259.499 36.6669 257.655 36.6824C257.655 36.6824 243.824 36.6824 239.226 36.6824C237.795 36.6824 234.395 36.9508 228.49 27.306C222.586 17.6612 211.743 0.912558 191.327 -2.86326e-05C170.911 -0.912615 150.746 6.3165 145.915 20.7926C141.084 35.2688 141.943 47.7408 149.887 59.3718C157.832 71.0028 174.15 70.1081 180.538 67.8892C183.079 66.9946 192.168 60.7317 207.502 62.2169C215.498 62.8495 223.147 65.7551 229.546 70.5912C230.284 71.1536 230.945 71.8092 231.514 72.5416C233.142 74.6531 239.172 80.7549 252.985 78.3929C268.856 75.6552 272.578 71.3428 275.888 60.6064C276.2 59.4643 276.345 58.2829 276.318 57.0993Z" fill="#1E1F58"/>
<path d="M112.821 267.895C113.148 263.203 108.026 259.024 101.382 258.561C94.7375 258.099 89.0866 261.528 88.7601 266.221C88.4336 270.914 93.5552 275.093 100.2 275.555C106.844 276.017 112.495 272.588 112.821 267.895Z" fill="#F8A723"/>
<path d="M133.426 317.616C133.426 317.616 137.971 341.451 133.999 351.614C130.027 361.778 124.927 369.15 118.092 368.613C111.257 368.077 102.776 365.84 94.8315 353.35C86.8872 340.86 66.0958 306.826 64.5749 294.3C63.054 281.775 64.5749 253.431 64.5749 253.431H73.3602L91.5214 268.193L94.3663 303.337L133.426 317.616Z" fill="#F5A9A1"/>
<path d="M178.015 88.5566C177.357 90.228 176.818 91.9442 176.405 93.6922C175.977 95.3381 175.856 97.0485 176.047 98.7382C176.122 99.5297 176.36 100.297 176.745 100.993C177.129 101.688 177.653 102.298 178.283 102.782C179.694 103.798 181.394 104.332 183.132 104.303C182.2 104.685 181.192 104.843 180.188 104.765C179.184 104.686 178.212 104.374 177.351 103.852C176.49 103.33 175.763 102.613 175.229 101.759C174.694 100.905 174.368 99.938 174.275 98.9351C174.062 96.9965 174.332 95.0353 175.063 93.2269C175.728 91.4901 176.731 89.9026 178.015 88.5566Z" fill="#1E1F58"/>
<path d="M155.559 29.0059C155.056 32.1647 154.852 35.364 154.951 38.5612C154.972 41.6707 155.713 44.733 157.116 47.5081C157.851 48.8186 158.84 49.9687 160.027 50.8907C161.213 51.8126 162.572 52.4878 164.023 52.8763C167.092 53.6749 170.27 53.971 173.434 53.7531C170.265 54.6692 166.925 54.8286 163.683 54.2183C161.999 53.8715 160.4 53.1966 158.977 52.2321C157.561 51.196 156.393 49.8573 155.559 48.3133C154.019 45.305 153.332 41.9323 153.573 38.5612C153.707 35.2887 154.378 32.0604 155.559 29.0059Z" fill="white"/>
<path d="M101.989 230.974C100.539 231.206 99.09 231.385 97.6407 231.582L95.4756 231.851C94.742 231.851 94.0084 231.851 93.2927 231.851H67.223L68.0819 230.705L70.73 239.652C70.9447 240.404 71.1594 241.137 71.4099 241.871C71.6604 242.605 71.6783 243.41 71.8036 244.179C72.0541 245.718 72.3224 247.257 72.5193 248.814C71.8393 247.4 71.2131 245.969 70.5868 244.537C70.2827 243.822 69.9427 243.124 69.6564 242.408C69.3701 241.692 69.227 240.905 69.0123 240.171L66.3642 231.224L66.0242 230.079H93.3285C94.0442 230.079 94.7778 230.079 95.5114 230.079L97.6765 230.365C99.1258 230.544 100.575 230.723 101.989 230.974Z" fill="white"/>
<path d="M193.582 247.526C190.088 249.013 186.502 250.274 182.846 251.301C181.969 251.588 181.057 251.874 180.269 252.196C179.479 252.606 178.745 253.117 178.086 253.717C176.619 254.898 175.224 256.204 173.756 257.457C174.738 255.811 175.87 254.259 177.138 252.822C177.823 252.055 178.605 251.382 179.464 250.818C180.337 250.339 181.254 249.944 182.202 249.637C184.026 249.019 185.892 248.528 187.784 248.17C189.693 247.781 191.634 247.566 193.582 247.526Z" fill="#1E1F58"/>
<path d="M208.916 256.329C206.679 257.528 204.407 258.638 202.152 259.801L195.317 263.04C193.045 264.167 190.701 265.133 188.464 266.296C187.398 266.746 186.404 267.349 185.512 268.086C184.76 268.891 184.832 269.267 185.655 270.072C186.572 270.81 187.591 271.412 188.679 271.861C189.824 272.416 190.969 273.007 192.079 273.651C194.315 274.867 196.534 276.12 198.681 277.462C203.029 280.092 207.287 282.83 211.403 285.836L198.019 278.679C195.782 277.516 193.564 276.299 191.309 275.1L187.927 273.436C186.677 272.914 185.508 272.215 184.456 271.36C183.78 270.818 183.338 270.036 183.222 269.177C183.215 268.732 183.304 268.291 183.483 267.883C183.662 267.475 183.927 267.111 184.259 266.815C185.288 265.915 186.454 265.184 187.713 264.65C190.021 263.576 192.365 262.61 194.727 261.662L201.776 258.817C204.156 258.101 206.518 257.153 208.916 256.329Z" fill="#1E1F58"/>
<path d="M227.238 276.013C227.095 274.349 227.023 272.702 227.005 271.038L227.184 271.485C225.556 270.197 223.981 268.837 222.443 267.459L223.427 267.585C221.315 268.73 219.168 269.786 216.985 270.77C214.799 271.769 212.552 272.629 210.258 273.346C212.181 271.907 214.195 270.592 216.287 269.41C218.363 268.211 220.492 267.101 222.639 266.046L223.194 265.777L223.624 266.189C225.109 267.638 226.558 269.123 227.954 270.662L228.168 270.895V271.11C227.971 272.756 227.685 274.384 227.238 276.013Z" fill="#1E1F58"/>
<path d="M318.169 319.888C312.139 314.52 306.252 309.152 300.383 303.641C294.515 298.129 288.735 292.564 282.92 287.035C277.105 281.506 271.433 275.834 265.761 270.161L257.28 261.608C254.488 258.709 251.661 255.846 248.924 252.912C251.948 255.56 254.9 258.28 257.87 260.964L266.691 269.159C272.56 274.635 278.322 280.236 284.137 285.765C289.952 291.294 295.642 296.966 301.314 302.657C306.986 308.347 312.64 314.037 318.169 319.888Z" fill="#1E1F58"/>
<path d="M82.8076 259.854C83.1294 260.612 83.4043 261.389 83.6307 262.181V264.489L83.4875 269.106L83.2549 273.776V276.084C82.9787 276.866 82.656 277.631 82.2887 278.375C81.9666 277.587 81.7161 276.8 81.4656 276.031V273.722L81.6267 269.106L81.7698 264.489V262.181C82.0724 261.387 82.4189 260.61 82.8076 259.854Z" fill="#1E1F58"/>
<path d="M73.3602 252.912C73.7105 253.656 74.0152 254.421 74.2728 255.202V268.927C74.0136 269.705 73.715 270.469 73.3781 271.217C73.0413 270.469 72.7427 269.705 72.4835 268.927V255.202C72.729 254.421 73.0218 253.657 73.3602 252.912Z" fill="#1E1F58"/>
<path d="M301.045 183.287C299.936 185.649 298.88 187.993 297.914 190.444C296.948 192.896 295.982 195.204 295.105 197.602C293.316 202.451 291.795 207.336 290.507 212.311C289.175 217.227 288.123 222.216 287.357 227.252L286.785 231.063L286.445 234.911C286.069 237.469 286.159 240.046 285.908 242.623C285.398 237.452 285.398 232.244 285.908 227.073C285.908 225.785 286.159 224.478 286.373 223.208C286.588 221.937 286.749 220.631 286.982 219.343C287.501 216.802 288.019 214.243 288.771 211.738C290.084 206.704 291.77 201.776 293.817 196.993C295.821 192.222 298.24 187.635 301.045 183.287Z" fill="white"/>
<path d="M138.239 197.727C139.629 199.01 140.833 200.479 141.818 202.093C142.849 203.7 143.713 205.409 144.394 207.193C145.064 208.993 145.514 210.868 145.736 212.776C145.959 214.682 145.856 216.612 145.432 218.484C145.11 216.695 144.842 214.798 144.359 213.116C143.908 211.351 143.358 209.612 142.713 207.909C141.403 204.438 139.91 201.039 138.239 197.727Z" fill="white"/>
<path d="M264.813 207.247C269.032 207.247 272.453 205.116 272.453 202.487C272.453 199.858 269.032 197.727 264.813 197.727C260.593 197.727 257.172 199.858 257.172 202.487C257.172 205.116 260.593 207.247 264.813 207.247Z" stroke="#F8A723" stroke-miterlimit="10"/>
<path d="M313.302 236.932C317.522 236.932 320.942 234.801 320.942 232.173C320.942 229.544 317.522 227.413 313.302 227.413C309.082 227.413 305.662 229.544 305.662 232.173C305.662 234.801 309.082 236.932 313.302 236.932Z" stroke="#F8A723" stroke-miterlimit="10"/>
<path d="M320.924 283.081C325.144 283.081 328.564 280.95 328.564 278.321C328.564 275.692 325.144 273.561 320.924 273.561C316.705 273.561 313.284 275.692 313.284 278.321C313.284 280.95 316.705 283.081 320.924 283.081Z" stroke="#F8A723" stroke-miterlimit="10"/>
<path d="M345.688 328.137C349.907 328.137 353.328 326.006 353.328 323.378C353.328 320.749 349.907 318.618 345.688 318.618C341.468 318.618 338.048 320.749 338.048 323.378C338.048 326.006 341.468 328.137 345.688 328.137Z" stroke="#F8A723" stroke-miterlimit="10"/>
<path d="M264.813 375.073C269.032 375.073 272.453 372.942 272.453 370.313C272.453 367.684 269.032 365.553 264.813 365.553C260.593 365.553 257.172 367.684 257.172 370.313C257.172 372.942 260.593 375.073 264.813 375.073Z" stroke="#F8A723" stroke-miterlimit="10"/>
<path d="M163.862 393.683C168.081 393.683 171.502 391.552 171.502 388.923C171.502 386.294 168.081 384.163 163.862 384.163C159.642 384.163 156.222 386.294 156.222 388.923C156.222 391.552 159.642 393.683 163.862 393.683Z" stroke="#F8A723" stroke-miterlimit="10"/>
<path d="M220.832 415.549C225.052 415.549 228.472 413.418 228.472 410.789C228.472 408.16 225.052 406.029 220.832 406.029C216.613 406.029 213.192 408.16 213.192 410.789C213.192 413.418 216.613 415.549 220.832 415.549Z" stroke="#F8A723" stroke-miterlimit="10"/>
<path d="M276.157 430.258C280.376 430.258 283.797 428.127 283.797 425.498C283.797 422.869 280.376 420.738 276.157 420.738C271.937 420.738 268.516 422.869 268.516 425.498C268.516 428.127 271.937 430.258 276.157 430.258Z" stroke="#F8A723" stroke-miterlimit="10"/>
<path d="M179.106 323.36C183.326 323.36 186.747 321.229 186.747 318.6C186.747 315.971 183.326 313.84 179.106 313.84C174.887 313.84 171.466 315.971 171.466 318.6C171.466 321.229 174.887 323.36 179.106 323.36Z" stroke="#F8A723" stroke-miterlimit="10"/>
<path d="M210.329 361.814C214.549 361.814 217.969 359.683 217.969 357.054C217.969 354.425 214.549 352.294 210.329 352.294C206.11 352.294 202.689 354.425 202.689 357.054C202.689 359.683 206.11 361.814 210.329 361.814Z" stroke="#F8A723" stroke-miterlimit="10"/>
<path d="M272.435 258.244C276.654 258.244 280.075 256.113 280.075 253.484C280.075 250.856 276.654 248.725 272.435 248.725C268.215 248.725 264.795 250.856 264.795 253.484C264.795 256.113 268.215 258.244 272.435 258.244Z" stroke="#F8A723" stroke-miterlimit="10"/>
<path d="M234.001 315.826C238.221 315.826 241.642 313.695 241.642 311.067C241.642 308.438 238.221 306.307 234.001 306.307C229.782 306.307 226.361 308.438 226.361 311.067C226.361 313.695 229.782 315.826 234.001 315.826Z" stroke="#F8A723" stroke-miterlimit="10"/>
<path d="M234.001 232.173C238.221 232.173 241.642 230.042 241.642 227.413C241.642 224.784 238.221 222.653 234.001 222.653C229.782 222.653 226.361 224.784 226.361 227.413C226.361 230.042 229.782 232.173 234.001 232.173Z" stroke="#F8A723" stroke-miterlimit="10"/>
<path d="M178.534 228.003C182.753 228.003 186.174 225.872 186.174 223.244C186.174 220.615 182.753 218.484 178.534 218.484C174.314 218.484 170.894 220.615 170.894 223.244C170.894 225.872 174.314 228.003 178.534 228.003Z" stroke="#F8A723" stroke-miterlimit="10"/>
<path d="M159.603 200.769C163.823 200.769 167.243 198.638 167.243 196.009C167.243 193.381 163.823 191.25 159.603 191.25C155.384 191.25 151.963 193.381 151.963 196.009C151.963 198.638 155.384 200.769 159.603 200.769Z" stroke="#F8A723" stroke-miterlimit="10"/>
<path d="M154.253 266.833C158.473 266.833 161.894 264.702 161.894 262.073C161.894 259.445 158.473 257.314 154.253 257.314C150.034 257.314 146.613 259.445 146.613 262.073C146.613 264.702 150.034 266.833 154.253 266.833Z" stroke="#F8A723" stroke-miterlimit="10"/>
<path d="M310.206 303.39C313.27 301.711 316.57 300.504 319.994 299.811C323.523 298.974 327.2 298.974 330.729 299.811C331.588 300.116 332.519 300.42 333.288 300.814C334.1 301.239 334.873 301.736 335.596 302.299C336.992 303.48 338.162 304.905 339.05 306.504C339.908 308.007 340.839 309.546 341.537 311.085C341.912 311.872 342.288 312.659 342.646 313.447L342.896 314.055C343.019 314.286 343.074 314.546 343.058 314.807C342.932 314.968 342.843 314.807 342.807 314.807L342.682 314.681L342.485 314.413L342.127 313.876L342.592 314.323L342.825 314.538L342.95 314.628C342.95 314.628 343.093 314.628 342.95 314.628C342.843 314.431 342.574 313.948 342.36 313.626C341.894 312.892 341.393 312.194 340.91 311.478L337.994 307.184C336.252 304.391 333.526 302.354 330.354 301.476C327.101 300.698 323.727 300.564 320.423 301.082C316.955 301.541 313.535 302.314 310.206 303.39Z" fill="white"/>
<path d="M148.259 427.341C152.586 424.551 157.155 422.155 161.911 420.184C166.67 418.189 171.615 416.672 176.673 415.656C177.943 415.406 179.214 415.191 180.502 415.048L182.434 414.815L184.385 414.708H186.335H188.285C189.591 414.708 190.862 414.833 192.132 414.976C194.691 415.245 197.232 415.549 199.772 415.961C201.043 416.175 202.295 416.444 203.548 416.766C204.174 416.945 204.8 417.124 205.337 417.356C205.647 417.475 205.941 417.632 206.214 417.822C206.446 417.947 206.804 418.358 206.482 418.609C206.751 418.323 206.375 418.036 206.142 417.929C205.855 417.792 205.556 417.685 205.248 417.607C204.639 417.446 204.031 417.338 203.458 417.231C202.188 417.052 200.935 416.909 199.665 416.819C197.124 416.587 194.584 416.444 192.043 416.354C187.008 416.074 181.957 416.435 177.013 417.428C172.048 418.427 167.163 419.785 162.395 421.49C159.997 422.331 157.617 423.279 155.237 424.228C152.858 425.176 150.585 426.267 148.259 427.341Z" fill="white"/>
<path d="M141.889 318.6C141.889 318.6 157.653 371.351 130.295 384.145C124.82 386.704 123.406 385.416 123.585 383.089C123.711 382.026 124.135 381.019 124.808 380.186C125.481 379.352 126.375 378.726 127.388 378.378C128.402 378.03 129.492 377.976 130.535 378.22C131.578 378.465 132.53 378.999 133.283 379.761C137.094 383.483 139.814 388.833 131.816 393.683C117.806 402.182 44.6066 386.793 32.1175 365.536" stroke="#1E1F58" stroke-miterlimit="10"/>
<path d="M31.8849 367.468C33.3177 367.468 34.4793 366.306 34.4793 364.874C34.4793 363.441 33.3177 362.279 31.8849 362.279C30.452 362.279 29.2904 363.441 29.2904 364.874C29.2904 366.306 30.452 367.468 31.8849 367.468Z" fill="#1E1F58"/>
<path d="M29.2725 356.463C29.2725 356.463 15.8351 326.563 22.2765 307.649" stroke="#1E1F58" stroke-miterlimit="10"/>
<path d="M25.9087 295.803C25.1572 295.803 24.4951 296.77 24.1194 298.165C23.8948 298.188 23.6832 298.281 23.5158 298.433C23.3483 298.584 23.2338 298.785 23.189 299.006L21.8828 305.573C21.8245 305.856 21.8802 306.15 22.0377 306.391C22.1953 306.632 22.4419 306.802 22.7238 306.862L23.2784 306.969C23.56 307.017 23.8493 306.954 24.0859 306.794C24.3226 306.634 24.4884 306.389 24.5488 306.11L25.0498 304.195C25.1554 304.348 25.2936 304.476 25.4546 304.569C25.6155 304.662 25.795 304.717 25.9802 304.732C27.0717 304.732 27.9663 302.746 27.9663 300.277C27.9663 297.807 27.0001 295.803 25.9087 295.803Z" fill="#1E1F58"/>
<path d="M27.8948 362.261C27.8948 362.261 3.90062 339.983 2.48709 320.014" stroke="#1E1F58" stroke-miterlimit="10"/>
<path d="M1.23459 307.774C0.536775 308.061 0.304169 309.206 0.536775 310.619C0.344585 310.735 0.192097 310.907 0.0994527 311.111C0.00680831 311.316 -0.0216331 311.544 0.0178853 311.765L1.35984 318.332C1.42003 318.613 1.58927 318.86 1.83062 319.018C2.07198 319.175 2.36585 319.231 2.64812 319.173L3.1849 319.065C3.46677 319.005 3.7134 318.836 3.87095 318.594C4.0285 318.353 4.08419 318.059 4.02586 317.777L3.57854 315.773C3.73537 315.875 3.91325 315.942 4.09905 315.966C4.28486 315.991 4.47385 315.974 4.65211 315.916C5.6541 315.486 5.70778 313.303 4.74157 311.031C3.77536 308.758 2.23659 307.255 1.23459 307.774Z" fill="#1E1F58"/>
</g>
<defs>
<clipPath id="clip0">
<rect width="359" height="470" fill="white"/>
</clipPath>
</defs>
</svg>
